<mxfile host="app.diagrams.net" agent="Mozilla/5.0 (Windows NT 10.0; Win64; x64) AppleWebKit/537.36 (KHTML, like Gecko) Chrome/130.0.0.0 Safari/537.36" version="24.8.6">
  <diagram name="Page-1" id="JKJ7h-oc1MNfxqjqytwB">
    <mxGraphModel dx="1173" dy="589" grid="1" gridSize="10" guides="1" tooltips="1" connect="1" arrows="1" fold="1" page="1" pageScale="1" pageWidth="827" pageHeight="1169" math="0" shadow="0">
      <root>
        <mxCell id="0" />
        <mxCell id="1" parent="0" />
        <mxCell id="-xHOu4f9dSxZTN1e3N7v-3" value="&lt;font style=&quot;vertical-align: inherit;&quot;&gt;&lt;font style=&quot;vertical-align: inherit;&quot;&gt;Admin&lt;/font&gt;&lt;/font&gt;" style="shape=umlActor;verticalLabelPosition=bottom;verticalAlign=top;html=1;outlineConnect=0;" vertex="1" parent="1">
          <mxGeometry x="20" y="540" width="60" height="100" as="geometry" />
        </mxCell>
        <mxCell id="-xHOu4f9dSxZTN1e3N7v-4" value="" style="rounded=0;whiteSpace=wrap;html=1;" vertex="1" parent="1">
          <mxGeometry x="160" y="450" width="720" height="550" as="geometry" />
        </mxCell>
        <mxCell id="-xHOu4f9dSxZTN1e3N7v-5" value="&lt;font style=&quot;vertical-align: inherit; font-size: 14px;&quot;&gt;&lt;font style=&quot;vertical-align: inherit; font-size: 14px;&quot;&gt;Gestion des contrats&lt;/font&gt;&lt;/font&gt;" style="text;html=1;align=center;verticalAlign=middle;whiteSpace=wrap;rounded=0;fontStyle=1;fontSize=14;" vertex="1" parent="1">
          <mxGeometry x="447.5" y="450" width="145" height="30" as="geometry" />
        </mxCell>
        <mxCell id="-xHOu4f9dSxZTN1e3N7v-6" value="&lt;font style=&quot;vertical-align: inherit;&quot;&gt;&lt;font style=&quot;vertical-align: inherit;&quot;&gt;Consulter contrat&lt;/font&gt;&lt;/font&gt;" style="ellipse;whiteSpace=wrap;html=1;" vertex="1" parent="1">
          <mxGeometry x="370" y="567.5" width="160" height="45" as="geometry" />
        </mxCell>
        <mxCell id="-xHOu4f9dSxZTN1e3N7v-7" value="&lt;font style=&quot;vertical-align: inherit;&quot;&gt;&lt;font style=&quot;vertical-align: inherit;&quot;&gt;&lt;font style=&quot;vertical-align: inherit;&quot;&gt;&lt;font style=&quot;vertical-align: inherit;&quot;&gt;Modifier Contrat&lt;/font&gt;&lt;/font&gt;&lt;/font&gt;&lt;/font&gt;" style="ellipse;whiteSpace=wrap;html=1;" vertex="1" parent="1">
          <mxGeometry x="707" y="595" width="120" height="45" as="geometry" />
        </mxCell>
        <mxCell id="-xHOu4f9dSxZTN1e3N7v-9" value="&lt;font style=&quot;vertical-align: inherit;&quot;&gt;&lt;font style=&quot;vertical-align: inherit;&quot;&gt;&lt;font style=&quot;vertical-align: inherit;&quot;&gt;&lt;font style=&quot;vertical-align: inherit;&quot;&gt;&lt;font style=&quot;vertical-align: inherit;&quot;&gt;&lt;font style=&quot;vertical-align: inherit;&quot;&gt;&lt;font style=&quot;vertical-align: inherit;&quot;&gt;&lt;font style=&quot;vertical-align: inherit;&quot;&gt;Résilier Contrat&lt;/font&gt;&lt;/font&gt;&lt;/font&gt;&lt;/font&gt;&lt;/font&gt;&lt;/font&gt;&lt;/font&gt;&lt;/font&gt;" style="ellipse;whiteSpace=wrap;html=1;" vertex="1" parent="1">
          <mxGeometry x="690" y="517" width="120" height="45" as="geometry" />
        </mxCell>
        <mxCell id="-xHOu4f9dSxZTN1e3N7v-10" value="&lt;font style=&quot;vertical-align: inherit;&quot;&gt;&lt;font style=&quot;vertical-align: inherit;&quot;&gt;&lt;font style=&quot;vertical-align: inherit;&quot;&gt;&lt;font style=&quot;vertical-align: inherit;&quot;&gt;&lt;font style=&quot;vertical-align: inherit;&quot;&gt;&lt;font style=&quot;vertical-align: inherit;&quot;&gt;&lt;font style=&quot;vertical-align: inherit;&quot;&gt;&lt;font style=&quot;vertical-align: inherit;&quot;&gt;Imprimer Contrat&lt;/font&gt;&lt;/font&gt;&lt;/font&gt;&lt;/font&gt;&lt;/font&gt;&lt;/font&gt;&lt;/font&gt;&lt;/font&gt;" style="ellipse;whiteSpace=wrap;html=1;" vertex="1" parent="1">
          <mxGeometry x="385" y="490" width="110" height="45" as="geometry" />
        </mxCell>
        <mxCell id="-xHOu4f9dSxZTN1e3N7v-11" value="&lt;font style=&quot;vertical-align: inherit;&quot;&gt;&lt;font style=&quot;vertical-align: inherit;&quot;&gt;&lt;font style=&quot;vertical-align: inherit;&quot;&gt;&lt;font style=&quot;vertical-align: inherit;&quot;&gt;&lt;font style=&quot;vertical-align: inherit;&quot;&gt;&lt;font style=&quot;vertical-align: inherit;&quot;&gt;&lt;font style=&quot;vertical-align: inherit;&quot;&gt;&lt;font style=&quot;vertical-align: inherit;&quot;&gt;S&#39;authentifier&lt;/font&gt;&lt;/font&gt;&lt;/font&gt;&lt;/font&gt;&lt;/font&gt;&lt;/font&gt;&lt;/font&gt;&lt;/font&gt;" style="ellipse;whiteSpace=wrap;html=1;" vertex="1" parent="1">
          <mxGeometry x="690" y="700" width="160" height="50" as="geometry" />
        </mxCell>
        <mxCell id="-xHOu4f9dSxZTN1e3N7v-12" value="&lt;font style=&quot;vertical-align: inherit;&quot;&gt;&lt;font style=&quot;vertical-align: inherit;&quot;&gt;&lt;font style=&quot;vertical-align: inherit;&quot;&gt;&lt;font style=&quot;vertical-align: inherit;&quot;&gt;&lt;font style=&quot;vertical-align: inherit;&quot;&gt;&lt;font style=&quot;vertical-align: inherit;&quot;&gt;&lt;font style=&quot;vertical-align: inherit;&quot;&gt;&lt;font style=&quot;vertical-align: inherit;&quot;&gt;Etablir Contrat&lt;/font&gt;&lt;/font&gt;&lt;/font&gt;&lt;/font&gt;&lt;/font&gt;&lt;/font&gt;&lt;/font&gt;&lt;/font&gt;" style="ellipse;whiteSpace=wrap;html=1;" vertex="1" parent="1">
          <mxGeometry x="310" y="750" width="200" height="45" as="geometry" />
        </mxCell>
        <mxCell id="-xHOu4f9dSxZTN1e3N7v-13" value="&lt;font style=&quot;vertical-align: inherit;&quot;&gt;&lt;font style=&quot;vertical-align: inherit;&quot;&gt;&lt;font style=&quot;vertical-align: inherit;&quot;&gt;&lt;font style=&quot;vertical-align: inherit;&quot;&gt;&lt;font style=&quot;vertical-align: inherit;&quot;&gt;&lt;font style=&quot;vertical-align: inherit;&quot;&gt;&lt;font style=&quot;vertical-align: inherit;&quot;&gt;&lt;font style=&quot;vertical-align: inherit;&quot;&gt;Générer PDF&lt;/font&gt;&lt;/font&gt;&lt;/font&gt;&lt;/font&gt;&lt;/font&gt;&lt;/font&gt;&lt;/font&gt;&lt;/font&gt;" style="ellipse;whiteSpace=wrap;html=1;" vertex="1" parent="1">
          <mxGeometry x="184" y="810" width="110" height="60" as="geometry" />
        </mxCell>
        <mxCell id="-xHOu4f9dSxZTN1e3N7v-14" value="&lt;font style=&quot;vertical-align: inherit;&quot;&gt;&lt;font style=&quot;vertical-align: inherit;&quot;&gt;&lt;font style=&quot;vertical-align: inherit;&quot;&gt;&lt;font style=&quot;vertical-align: inherit;&quot;&gt;&lt;font style=&quot;vertical-align: inherit;&quot;&gt;&lt;font style=&quot;vertical-align: inherit;&quot;&gt;&lt;font style=&quot;vertical-align: inherit;&quot;&gt;&lt;font style=&quot;vertical-align: inherit;&quot;&gt;Ajouter propriétaire&lt;/font&gt;&lt;/font&gt;&lt;/font&gt;&lt;/font&gt;&lt;/font&gt;&lt;/font&gt;&lt;/font&gt;&lt;/font&gt;" style="ellipse;whiteSpace=wrap;html=1;" vertex="1" parent="1">
          <mxGeometry x="510" y="890" width="120" height="55" as="geometry" />
        </mxCell>
        <mxCell id="-xHOu4f9dSxZTN1e3N7v-15" value="&lt;font style=&quot;vertical-align: inherit;&quot;&gt;&lt;font style=&quot;vertical-align: inherit;&quot;&gt;&lt;font style=&quot;vertical-align: inherit;&quot;&gt;&lt;font style=&quot;vertical-align: inherit;&quot;&gt;&lt;font style=&quot;vertical-align: inherit;&quot;&gt;&lt;font style=&quot;vertical-align: inherit;&quot;&gt;&lt;font style=&quot;vertical-align: inherit;&quot;&gt;&lt;font style=&quot;vertical-align: inherit;&quot;&gt;Ajouter client&lt;/font&gt;&lt;/font&gt;&lt;/font&gt;&lt;/font&gt;&lt;/font&gt;&lt;/font&gt;&lt;/font&gt;&lt;/font&gt;" style="ellipse;whiteSpace=wrap;html=1;" vertex="1" parent="1">
          <mxGeometry x="380" y="900" width="110" height="57.5" as="geometry" />
        </mxCell>
        <mxCell id="-xHOu4f9dSxZTN1e3N7v-35" style="rounded=0;orthogonalLoop=1;jettySize=auto;html=1;exitX=0;exitY=0.5;exitDx=0;exitDy=0;endArrow=block;endFill=0;entryX=1;entryY=0.5;entryDx=0;entryDy=0;" edge="1" parent="1" source="-xHOu4f9dSxZTN1e3N7v-16" target="-xHOu4f9dSxZTN1e3N7v-12">
          <mxGeometry relative="1" as="geometry" />
        </mxCell>
        <mxCell id="-xHOu4f9dSxZTN1e3N7v-16" value="&lt;font style=&quot;vertical-align: inherit;&quot;&gt;&lt;font style=&quot;vertical-align: inherit;&quot;&gt;&lt;font style=&quot;vertical-align: inherit;&quot;&gt;&lt;font style=&quot;vertical-align: inherit;&quot;&gt;&lt;font style=&quot;vertical-align: inherit;&quot;&gt;&lt;font style=&quot;vertical-align: inherit;&quot;&gt;&lt;font style=&quot;vertical-align: inherit;&quot;&gt;&lt;font style=&quot;vertical-align: inherit;&quot;&gt;Location&lt;/font&gt;&lt;/font&gt;&lt;/font&gt;&lt;/font&gt;&lt;/font&gt;&lt;/font&gt;&lt;/font&gt;&lt;/font&gt;" style="ellipse;whiteSpace=wrap;html=1;" vertex="1" parent="1">
          <mxGeometry x="720" y="790" width="110" height="40" as="geometry" />
        </mxCell>
        <mxCell id="-xHOu4f9dSxZTN1e3N7v-36" style="rounded=0;orthogonalLoop=1;jettySize=auto;html=1;exitX=0;exitY=0.5;exitDx=0;exitDy=0;entryX=1;entryY=1;entryDx=0;entryDy=0;endArrow=block;endFill=0;" edge="1" parent="1" source="-xHOu4f9dSxZTN1e3N7v-17" target="-xHOu4f9dSxZTN1e3N7v-12">
          <mxGeometry relative="1" as="geometry" />
        </mxCell>
        <mxCell id="-xHOu4f9dSxZTN1e3N7v-17" value="&lt;font style=&quot;vertical-align: inherit;&quot;&gt;&lt;font style=&quot;vertical-align: inherit;&quot;&gt;&lt;font style=&quot;vertical-align: inherit;&quot;&gt;&lt;font style=&quot;vertical-align: inherit;&quot;&gt;&lt;font style=&quot;vertical-align: inherit;&quot;&gt;&lt;font style=&quot;vertical-align: inherit;&quot;&gt;&lt;font style=&quot;vertical-align: inherit;&quot;&gt;&lt;font style=&quot;vertical-align: inherit;&quot;&gt;Vente&lt;/font&gt;&lt;/font&gt;&lt;/font&gt;&lt;/font&gt;&lt;/font&gt;&lt;/font&gt;&lt;/font&gt;&lt;/font&gt;" style="ellipse;whiteSpace=wrap;html=1;" vertex="1" parent="1">
          <mxGeometry x="680" y="860" width="120" height="40" as="geometry" />
        </mxCell>
        <mxCell id="-xHOu4f9dSxZTN1e3N7v-18" value="&lt;font style=&quot;vertical-align: inherit;&quot;&gt;&lt;font style=&quot;vertical-align: inherit;&quot;&gt;&lt;font style=&quot;vertical-align: inherit;&quot;&gt;&lt;font style=&quot;vertical-align: inherit;&quot;&gt;&lt;font style=&quot;vertical-align: inherit;&quot;&gt;&lt;font style=&quot;vertical-align: inherit;&quot;&gt;&lt;font style=&quot;vertical-align: inherit;&quot;&gt;&lt;font style=&quot;vertical-align: inherit;&quot;&gt;Notifier parties prenantes&lt;/font&gt;&lt;/font&gt;&lt;/font&gt;&lt;/font&gt;&lt;/font&gt;&lt;/font&gt;&lt;/font&gt;&lt;/font&gt;" style="ellipse;whiteSpace=wrap;html=1;" vertex="1" parent="1">
          <mxGeometry x="250" y="885" width="120" height="60" as="geometry" />
        </mxCell>
        <mxCell id="-xHOu4f9dSxZTN1e3N7v-19" value="" style="endArrow=none;html=1;rounded=0;entryX=0;entryY=0.5;entryDx=0;entryDy=0;" edge="1" parent="1" source="-xHOu4f9dSxZTN1e3N7v-3" target="-xHOu4f9dSxZTN1e3N7v-6">
          <mxGeometry width="50" height="50" relative="1" as="geometry">
            <mxPoint x="290" y="590" as="sourcePoint" />
            <mxPoint x="340" y="540" as="targetPoint" />
          </mxGeometry>
        </mxCell>
        <mxCell id="-xHOu4f9dSxZTN1e3N7v-20" value="" style="endArrow=none;html=1;rounded=0;entryX=0;entryY=0.5;entryDx=0;entryDy=0;" edge="1" parent="1" source="-xHOu4f9dSxZTN1e3N7v-3" target="-xHOu4f9dSxZTN1e3N7v-12">
          <mxGeometry width="50" height="50" relative="1" as="geometry">
            <mxPoint x="30" y="760" as="sourcePoint" />
            <mxPoint x="220" y="700" as="targetPoint" />
          </mxGeometry>
        </mxCell>
        <mxCell id="-xHOu4f9dSxZTN1e3N7v-22" value="" style="endArrow=none;html=1;rounded=0;exitX=0.5;exitY=0;exitDx=0;exitDy=0;entryX=0.5;entryY=1;entryDx=0;entryDy=0;dashed=1;startArrow=open;startFill=0;" edge="1" parent="1" source="-xHOu4f9dSxZTN1e3N7v-6" target="-xHOu4f9dSxZTN1e3N7v-10">
          <mxGeometry width="50" height="50" relative="1" as="geometry">
            <mxPoint x="510" y="590" as="sourcePoint" />
            <mxPoint x="560" y="540" as="targetPoint" />
          </mxGeometry>
        </mxCell>
        <mxCell id="-xHOu4f9dSxZTN1e3N7v-23" value="&amp;lt;&amp;lt;extend&amp;gt;&amp;gt;" style="text;html=1;align=center;verticalAlign=middle;whiteSpace=wrap;rounded=0;" vertex="1" parent="1">
          <mxGeometry x="370" y="532" width="60" height="30" as="geometry" />
        </mxCell>
        <mxCell id="-xHOu4f9dSxZTN1e3N7v-24" value="" style="endArrow=none;html=1;rounded=0;exitX=1;exitY=0;exitDx=0;exitDy=0;entryX=0;entryY=0.5;entryDx=0;entryDy=0;dashed=1;startArrow=open;startFill=0;" edge="1" parent="1" source="-xHOu4f9dSxZTN1e3N7v-6" target="-xHOu4f9dSxZTN1e3N7v-9">
          <mxGeometry width="50" height="50" relative="1" as="geometry">
            <mxPoint x="500" y="579" as="sourcePoint" />
            <mxPoint x="546" y="543" as="targetPoint" />
          </mxGeometry>
        </mxCell>
        <mxCell id="-xHOu4f9dSxZTN1e3N7v-25" value="&amp;lt;&amp;lt;extend&amp;gt;&amp;gt;" style="text;html=1;align=center;verticalAlign=middle;whiteSpace=wrap;rounded=0;" vertex="1" parent="1">
          <mxGeometry x="580" y="517" width="60" height="30" as="geometry" />
        </mxCell>
        <mxCell id="-xHOu4f9dSxZTN1e3N7v-26" value="" style="endArrow=none;html=1;rounded=0;exitX=0.962;exitY=0.668;exitDx=0;exitDy=0;entryX=0;entryY=0.5;entryDx=0;entryDy=0;dashed=1;startArrow=open;startFill=0;exitPerimeter=0;" edge="1" parent="1" source="-xHOu4f9dSxZTN1e3N7v-6" target="-xHOu4f9dSxZTN1e3N7v-7">
          <mxGeometry width="50" height="50" relative="1" as="geometry">
            <mxPoint x="500" y="584" as="sourcePoint" />
            <mxPoint x="700" y="550" as="targetPoint" />
          </mxGeometry>
        </mxCell>
        <mxCell id="-xHOu4f9dSxZTN1e3N7v-27" value="" style="endArrow=none;html=1;rounded=0;dashed=1;startArrow=open;startFill=0;" edge="1" parent="1" source="-xHOu4f9dSxZTN1e3N7v-11">
          <mxGeometry width="50" height="50" relative="1" as="geometry">
            <mxPoint x="330" y="640" as="sourcePoint" />
            <mxPoint x="470" y="609" as="targetPoint" />
          </mxGeometry>
        </mxCell>
        <mxCell id="-xHOu4f9dSxZTN1e3N7v-28" value="&amp;lt;&amp;lt;extend&amp;gt;&amp;gt;" style="text;html=1;align=center;verticalAlign=middle;whiteSpace=wrap;rounded=0;" vertex="1" parent="1">
          <mxGeometry x="610" y="575" width="60" height="30" as="geometry" />
        </mxCell>
        <mxCell id="-xHOu4f9dSxZTN1e3N7v-30" value="&amp;lt;&amp;lt;include&lt;span style=&quot;background-color: initial;&quot;&gt;&amp;gt;&amp;gt;&lt;/span&gt;" style="text;html=1;align=center;verticalAlign=middle;whiteSpace=wrap;rounded=0;" vertex="1" parent="1">
          <mxGeometry x="550" y="620" width="60" height="30" as="geometry" />
        </mxCell>
        <mxCell id="-xHOu4f9dSxZTN1e3N7v-31" value="" style="endArrow=none;html=1;rounded=0;dashed=1;startArrow=open;startFill=0;entryX=1;entryY=0;entryDx=0;entryDy=0;exitX=0;exitY=0.5;exitDx=0;exitDy=0;" edge="1" parent="1" source="-xHOu4f9dSxZTN1e3N7v-11" target="-xHOu4f9dSxZTN1e3N7v-12">
          <mxGeometry width="50" height="50" relative="1" as="geometry">
            <mxPoint x="610" y="698" as="sourcePoint" />
            <mxPoint x="461" y="640" as="targetPoint" />
          </mxGeometry>
        </mxCell>
        <mxCell id="-xHOu4f9dSxZTN1e3N7v-34" value="&amp;lt;&amp;lt;include&lt;span style=&quot;background-color: initial;&quot;&gt;&amp;gt;&amp;gt;&lt;/span&gt;" style="text;html=1;align=center;verticalAlign=middle;whiteSpace=wrap;rounded=0;" vertex="1" parent="1">
          <mxGeometry x="550" y="710" width="60" height="30" as="geometry" />
        </mxCell>
        <mxCell id="-xHOu4f9dSxZTN1e3N7v-38" value="" style="endArrow=open;html=1;rounded=0;dashed=1;startArrow=none;startFill=0;entryX=1;entryY=0;entryDx=0;entryDy=0;exitX=0;exitY=1;exitDx=0;exitDy=0;endFill=0;" edge="1" parent="1" source="-xHOu4f9dSxZTN1e3N7v-12" target="-xHOu4f9dSxZTN1e3N7v-13">
          <mxGeometry width="50" height="50" relative="1" as="geometry">
            <mxPoint x="484.5" y="823" as="sourcePoint" />
            <mxPoint x="315.5" y="885" as="targetPoint" />
          </mxGeometry>
        </mxCell>
        <mxCell id="-xHOu4f9dSxZTN1e3N7v-39" value="&amp;lt;&amp;lt;include&lt;span style=&quot;background-color: initial;&quot;&gt;&amp;gt;&amp;gt;&lt;/span&gt;" style="text;html=1;align=center;verticalAlign=middle;whiteSpace=wrap;rounded=0;" vertex="1" parent="1">
          <mxGeometry x="260" y="780" width="60" height="30" as="geometry" />
        </mxCell>
        <mxCell id="-xHOu4f9dSxZTN1e3N7v-40" value="" style="endArrow=none;html=1;rounded=0;dashed=1;startArrow=open;startFill=0;entryX=0.272;entryY=0.979;entryDx=0;entryDy=0;exitX=0.5;exitY=0;exitDx=0;exitDy=0;entryPerimeter=0;" edge="1" parent="1" source="-xHOu4f9dSxZTN1e3N7v-18" target="-xHOu4f9dSxZTN1e3N7v-12">
          <mxGeometry width="50" height="50" relative="1" as="geometry">
            <mxPoint x="529" y="824" as="sourcePoint" />
            <mxPoint x="320" y="856" as="targetPoint" />
          </mxGeometry>
        </mxCell>
        <mxCell id="-xHOu4f9dSxZTN1e3N7v-42" value="" style="endArrow=none;html=1;rounded=0;dashed=1;startArrow=open;startFill=0;entryX=0.5;entryY=0;entryDx=0;entryDy=0;exitX=0.5;exitY=1;exitDx=0;exitDy=0;" edge="1" parent="1" source="-xHOu4f9dSxZTN1e3N7v-12" target="-xHOu4f9dSxZTN1e3N7v-15">
          <mxGeometry width="50" height="50" relative="1" as="geometry">
            <mxPoint x="599" y="838" as="sourcePoint" />
            <mxPoint x="390" y="870" as="targetPoint" />
          </mxGeometry>
        </mxCell>
        <mxCell id="-xHOu4f9dSxZTN1e3N7v-43" value="" style="endArrow=none;html=1;rounded=0;dashed=1;startArrow=open;startFill=0;entryX=0;entryY=0;entryDx=0;entryDy=0;exitX=0.732;exitY=0.96;exitDx=0;exitDy=0;exitPerimeter=0;" edge="1" parent="1" source="-xHOu4f9dSxZTN1e3N7v-12" target="-xHOu4f9dSxZTN1e3N7v-14">
          <mxGeometry width="50" height="50" relative="1" as="geometry">
            <mxPoint x="470" y="805" as="sourcePoint" />
            <mxPoint x="495" y="910" as="targetPoint" />
          </mxGeometry>
        </mxCell>
        <mxCell id="-xHOu4f9dSxZTN1e3N7v-44" value="&amp;lt;&amp;lt;include&lt;span style=&quot;background-color: initial;&quot;&gt;&amp;gt;&amp;gt;&lt;/span&gt;" style="text;html=1;align=center;verticalAlign=middle;whiteSpace=wrap;rounded=0;rotation=-46;" vertex="1" parent="1">
          <mxGeometry x="294" y="825" width="60" height="30" as="geometry" />
        </mxCell>
        <mxCell id="-xHOu4f9dSxZTN1e3N7v-45" value="&amp;lt;&amp;lt;extend&amp;gt;&amp;gt;" style="text;html=1;align=center;verticalAlign=middle;whiteSpace=wrap;rounded=0;" vertex="1" parent="1">
          <mxGeometry x="360" y="830" width="60" height="30" as="geometry" />
        </mxCell>
        <mxCell id="-xHOu4f9dSxZTN1e3N7v-46" value="&amp;lt;&amp;lt;extend&amp;gt;&amp;gt;" style="text;html=1;align=center;verticalAlign=middle;whiteSpace=wrap;rounded=0;" vertex="1" parent="1">
          <mxGeometry x="447.5" y="865" width="60" height="30" as="geometry" />
        </mxCell>
      </root>
    </mxGraphModel>
  </diagram>
</mxfile>
